<svg width="501" height="124" viewBox="0 0 501 124" fill="none" xmlns="http://www.w3.org/2000/svg">
<path d="M144.672 64L144.336 62.08C145.552 61.76 146.288 61.504 146.544 61.312C146.832 61.12 147.104 60.688 147.36 60.016L158.112 30.304H162.096L173.088 60.784C173.248 61.264 174.192 61.664 175.92 61.984L175.728 64H164.544L164.256 62.08C166.496 61.632 167.616 61.104 167.616 60.496C167.616 60.24 167.552 59.904 167.424 59.488L165.312 53.248H152.88L150.432 60.064C150.304 60.448 150.24 60.72 150.24 60.88C150.24 61.008 150.336 61.088 150.528 61.12L153.936 62.032L153.744 64H144.672ZM153.792 50.704H164.496L159.792 37.216C159.568 36.544 159.456 36.08 159.456 35.824H158.976L153.792 50.704ZM186.284 64.432L178.7 44.896C178.476 44.288 178.252 43.904 178.028 43.744C177.804 43.584 177.18 43.392 176.156 43.168L176.444 41.296H186.332L186.524 43.168L183.596 43.888C183.372 43.92 183.26 44.048 183.26 44.272C183.26 44.304 183.324 44.512 183.452 44.896L187.772 56.992C188.156 58.112 188.348 58.992 188.348 59.632H188.732L194.06 46C194.252 45.488 194.348 45.072 194.348 44.752C194.348 44.4 194.108 44.112 193.628 43.888C193.18 43.664 192.364 43.424 191.18 43.168L191.468 41.296H200.012L200.204 43.168C199.18 43.424 198.556 43.6 198.332 43.696C198.108 43.76 197.98 43.856 197.948 43.984L189.404 64.432H186.284ZM211.777 64.432C208.545 64.432 206.033 63.328 204.241 61.12C202.481 58.912 201.601 56.128 201.601 52.768C201.601 49.376 202.625 46.496 204.673 44.128C206.721 41.76 209.425 40.576 212.785 40.576C218.225 40.576 221.073 43.92 221.329 50.608L220.081 51.52L206.161 52.288C206.161 58.208 208.689 61.168 213.745 61.168C215.953 61.168 218.113 60.624 220.225 59.536L221.233 61.12C220.177 61.984 218.801 62.752 217.105 63.424C215.409 64.096 213.633 64.432 211.777 64.432ZM206.305 50.08L216.241 49.216C216.561 49.184 216.721 48.88 216.721 48.304C216.721 46.896 216.337 45.68 215.569 44.656C214.833 43.632 213.569 43.12 211.777 43.12C209.985 43.12 208.673 43.728 207.841 44.944C207.041 46.128 206.529 47.84 206.305 50.08ZM225.147 64L224.859 62.128C226.427 61.808 227.371 61.488 227.691 61.168C228.043 60.816 228.219 60.224 228.219 59.392V45.568C228.219 44.736 228.011 44.16 227.595 43.84C227.211 43.488 226.203 43.152 224.571 42.832L224.859 41.296L231.051 40.672C231.275 40.672 231.499 41.12 231.723 42.016C231.979 42.912 232.107 43.696 232.107 44.368V44.656L232.491 44.8L233.067 44.128C235.083 41.76 237.547 40.576 240.459 40.576C242.507 40.576 244.123 41.2 245.307 42.448C246.491 43.664 247.083 45.376 247.083 47.584V60.544C247.083 60.928 247.163 61.184 247.323 61.312C247.515 61.408 247.755 61.488 248.043 61.552L250.395 62.128L250.203 64H239.931L239.643 62.128C241.083 61.84 241.963 61.52 242.283 61.168C242.603 60.816 242.763 60.224 242.763 59.392V49.024C242.763 47.52 242.491 46.32 241.947 45.424C241.403 44.496 240.331 44.032 238.731 44.032C237.163 44.032 235.451 44.656 233.595 45.904C233.307 46.096 233.099 46.24 232.971 46.336C232.683 46.656 232.539 47.248 232.539 48.112V60.496C232.539 60.848 232.587 61.088 232.683 61.216C232.811 61.344 233.083 61.456 233.499 61.552L235.611 62.128L235.419 64H225.147ZM255.9 58.048V45.376C255.9 44.704 255.644 44.224 255.132 43.936C254.62 43.616 253.66 43.312 252.252 43.024L252.54 41.488C255.964 41.04 258.348 40.816 259.692 40.816L260.22 41.296V55.984C260.22 59.312 261.484 60.976 264.012 60.976C265.644 60.976 267.34 60.352 269.1 59.104C269.516 58.816 269.788 58.544 269.916 58.288C270.044 58 270.108 57.536 270.108 56.896V45.376C270.108 44.704 269.852 44.224 269.34 43.936C268.828 43.616 267.868 43.312 266.46 43.024L266.748 41.488C270.172 41.04 272.556 40.816 273.9 40.816L274.428 41.296V59.248C274.428 60.08 274.62 60.672 275.004 61.024C275.42 61.344 276.444 61.664 278.076 61.984L277.788 63.52L271.596 64.192C271.372 64.224 271.132 63.808 270.876 62.944C270.652 62.048 270.54 61.28 270.54 60.64V60.352L270.156 60.208L269.58 60.88C267.564 63.248 265.1 64.432 262.188 64.432C260.236 64.432 258.7 63.92 257.58 62.896C256.46 61.84 255.9 60.224 255.9 58.048ZM290.996 64.432C287.764 64.432 285.252 63.328 283.46 61.12C281.7 58.912 280.82 56.128 280.82 52.768C280.82 49.376 281.844 46.496 283.892 44.128C285.94 41.76 288.644 40.576 292.004 40.576C297.444 40.576 300.292 43.92 300.548 50.608L299.3 51.52L285.38 52.288C285.38 58.208 287.908 61.168 292.964 61.168C295.172 61.168 297.332 60.624 299.444 59.536L300.452 61.12C299.396 61.984 298.02 62.752 296.324 63.424C294.628 64.096 292.852 64.432 290.996 64.432ZM285.523 50.08L295.46 49.216C295.78 49.184 295.94 48.88 295.94 48.304C295.94 46.896 295.556 45.68 294.788 44.656C294.052 43.632 292.788 43.12 290.996 43.12C289.204 43.12 287.892 43.728 287.06 44.944C286.26 46.128 285.748 47.84 285.523 50.08ZM316.275 64L315.987 62.128C317.683 61.84 318.707 61.52 319.059 61.168C319.443 60.816 319.635 60.144 319.635 59.152V35.584C319.635 34.592 319.443 33.92 319.059 33.568C318.707 33.216 317.683 32.896 315.987 32.608L316.275 30.736H328.035L328.227 32.608L325.251 33.184C324.611 33.312 324.291 33.728 324.291 34.432V61.552L328.563 61.504C332.115 61.44 334.195 61.328 334.803 61.168C335.315 61.008 336.211 58.544 337.491 53.776L340.131 54.016C340.163 54.56 340.179 55.68 340.179 57.376C340.179 59.04 340.003 61.248 339.651 64H316.275ZM342.897 64L342.609 62.128C344.177 61.808 345.121 61.488 345.441 61.168C345.793 60.816 345.969 60.224 345.969 59.392V45.616C345.969 44.944 345.713 44.464 345.201 44.176C344.689 43.856 343.729 43.552 342.321 43.264L342.609 41.728C346.033 41.28 348.417 41.056 349.761 41.056L350.289 41.536V60.544C350.289 60.928 350.369 61.184 350.529 61.312C350.721 61.408 350.961 61.488 351.249 61.552L353.601 62.128L353.409 64H342.897ZM350.337 32.512C350.337 33.312 350.081 33.984 349.569 34.528C349.089 35.072 348.433 35.344 347.601 35.344C346.801 35.344 346.129 35.104 345.585 34.624C345.073 34.144 344.817 33.488 344.817 32.656C344.817 31.792 345.057 31.104 345.537 30.592C346.049 30.08 346.737 29.824 347.601 29.824C349.425 29.824 350.337 30.72 350.337 32.512ZM359.484 62.368V31.504C359.484 30.832 359.228 30.352 358.716 30.064C358.204 29.744 357.244 29.44 355.836 29.152L356.124 27.616C359.548 27.168 361.932 26.944 363.276 26.944L363.804 27.424V40.912C363.804 42.672 363.692 43.92 363.468 44.656L363.852 44.8L364.332 44.176C366.188 41.776 368.412 40.576 371.004 40.576C373.596 40.576 375.724 41.616 377.388 43.696C379.052 45.744 379.884 48.576 379.884 52.192C379.884 55.808 378.924 58.752 377.004 61.024C375.116 63.296 372.38 64.432 368.796 64.432C367.1 64.432 365.372 64.208 363.612 63.76C361.852 63.312 360.476 62.848 359.484 62.368ZM363.804 59.968C365.18 61.12 366.908 61.696 368.988 61.696C371.1 61.696 372.524 61.264 373.26 60.4C373.836 59.76 374.3 58.752 374.652 57.376C375.036 55.968 375.228 54.416 375.228 52.72C375.228 49.872 374.716 47.712 373.692 46.24C372.668 44.768 371.404 44.032 369.9 44.032C368.396 44.032 366.796 44.592 365.1 45.712C364.556 46.064 364.204 46.384 364.044 46.672C363.884 46.96 363.804 47.36 363.804 47.872V59.968ZM383.529 64L383.241 62.128C384.937 61.84 385.977 61.52 386.361 61.168C386.745 60.816 386.937 60.224 386.937 59.392V45.568C386.937 44.736 386.713 44.144 386.265 43.792C385.849 43.408 384.745 43.088 382.953 42.832L383.241 41.296L389.769 40.672C389.993 40.672 390.233 40.992 390.489 41.632C390.745 42.272 390.873 42.944 390.873 43.648C390.873 44.32 390.809 45.104 390.681 46L391.065 46.144L391.689 44.752C392.265 43.472 393.129 42.464 394.281 41.728C395.465 40.96 396.649 40.576 397.833 40.576C399.049 40.576 400.169 40.832 401.193 41.344C401.193 43.968 400.953 46.592 400.473 49.216L398.121 49.456C397.865 46.768 397.609 45.248 397.353 44.896C397.097 44.512 396.665 44.32 396.057 44.32C395.481 44.32 394.793 44.592 393.993 45.136C393.193 45.648 392.537 46.208 392.025 46.816C391.513 47.392 391.257 48.352 391.257 49.696V60.544C391.257 60.96 391.337 61.232 391.497 61.36C391.689 61.456 391.929 61.52 392.217 61.552L396.585 62.128L396.393 64H383.529ZM404.344 58.096C404.344 55.696 405.368 53.904 407.416 52.72C409.464 51.536 412.792 50.928 417.4 50.896V49.36C417.4 45.2 415.896 43.12 412.888 43.12C411.448 43.12 410.536 43.328 410.152 43.744C409.8 44.16 409.416 45.52 409 47.824L406.408 47.536C406.152 46.544 406.024 45.52 406.024 44.464C406.024 43.376 406.04 42.672 406.072 42.352C407.96 41.168 410.44 40.576 413.512 40.576C416.584 40.576 418.712 41.168 419.896 42.352C421.112 43.536 421.72 45.488 421.72 48.208V59.248C421.72 60.08 421.912 60.672 422.296 61.024C422.712 61.344 423.736 61.664 425.368 61.984L425.08 63.52L419.32 64.144C419 64.144 418.664 63.84 418.312 63.232C417.96 62.624 417.784 62.064 417.784 61.552C417.784 61.008 417.8 60.608 417.832 60.352L417.448 60.208L416.872 61.072C415.368 63.312 413.304 64.432 410.68 64.432C408.888 64.432 407.384 63.872 406.168 62.752C404.952 61.632 404.344 60.08 404.344 58.096ZM409 57.664C409 58.816 409.304 59.696 409.912 60.304C410.52 60.88 411.384 61.168 412.504 61.168C413.624 61.168 414.888 60.624 416.296 59.536C417.032 58.96 417.4 58.352 417.4 57.712V53.008C414.52 53.072 412.392 53.456 411.016 54.16C409.672 54.864 409 56.032 409 57.664ZM428.811 64L428.523 62.128C430.219 61.84 431.259 61.52 431.643 61.168C432.027 60.816 432.219 60.224 432.219 59.392V45.568C432.219 44.736 431.995 44.144 431.547 43.792C431.131 43.408 430.027 43.088 428.235 42.832L428.523 41.296L435.051 40.672C435.275 40.672 435.515 40.992 435.771 41.632C436.027 42.272 436.155 42.944 436.155 43.648C436.155 44.32 436.091 45.104 435.963 46L436.347 46.144L436.971 44.752C437.547 43.472 438.411 42.464 439.563 41.728C440.747 40.96 441.931 40.576 443.115 40.576C444.331 40.576 445.451 40.832 446.475 41.344C446.475 43.968 446.235 46.592 445.755 49.216L443.403 49.456C443.147 46.768 442.891 45.248 442.635 44.896C442.379 44.512 441.947 44.32 441.339 44.32C440.763 44.32 440.075 44.592 439.275 45.136C438.475 45.648 437.819 46.208 437.307 46.816C436.795 47.392 436.539 48.352 436.539 49.696V60.544C436.539 60.96 436.619 61.232 436.779 61.36C436.971 61.456 437.211 61.52 437.499 61.552L441.867 62.128L441.675 64H428.811ZM449.001 69.616C449.769 69.712 450.825 69.76 452.169 69.76C453.545 69.76 454.633 69.584 455.433 69.232C456.233 68.912 457.193 67.168 458.313 64L450.345 44.896C450.089 44.288 449.849 43.904 449.625 43.744C449.433 43.584 448.825 43.392 447.801 43.168L448.089 41.296H457.977L458.169 43.168L455.241 43.888C455.017 43.92 454.905 44.048 454.905 44.272C454.905 44.304 454.969 44.512 455.097 44.896L459.993 57.712C460.153 58.16 460.233 58.656 460.233 59.2H460.617L465.705 46C465.897 45.488 465.993 45.072 465.993 44.752C465.993 44.4 465.753 44.112 465.273 43.888C464.825 43.664 464.009 43.424 462.825 43.168L463.113 41.296H471.657L471.849 43.168C470.441 43.488 469.689 43.76 469.593 43.984L462.009 62.8C461.369 64.4 460.857 65.616 460.473 66.448C460.089 67.312 459.561 68.272 458.889 69.328C458.217 70.384 457.513 71.2 456.777 71.776C454.953 73.152 452.745 74.064 450.153 74.512C449.321 73.68 448.905 72.368 448.905 70.576C448.905 70.384 448.937 70.064 449.001 69.616ZM145.68 94.112C145.68 90.464 146.432 87.216 147.936 84.368C149.696 81.008 152.336 78.672 155.856 77.36C157.808 76.656 159.84 76.304 161.952 76.304C164.064 76.304 166.096 76.464 168.048 76.784C170 77.104 171.28 77.392 171.888 77.648C172.08 78.832 172.176 80.08 172.176 81.392C172.176 82.672 172.144 84.112 172.08 85.712L169.344 86.096C168.64 82.384 168.016 80.336 167.472 79.952C167.184 79.728 166.432 79.488 165.216 79.232C164.032 78.976 162.848 78.848 161.664 78.848C158.144 78.848 155.488 80.144 153.696 82.736C151.904 85.328 151.008 88.736 151.008 92.96C151.008 97.952 152.144 101.664 154.416 104.096C156.688 106.528 159.504 107.744 162.864 107.744C164.08 107.744 165.216 107.6 166.272 107.312C167.36 107.024 168.064 106.752 168.384 106.496C168.736 106.24 169.264 104.208 169.968 100.4L172.608 100.496C172.608 102.928 172.432 105.52 172.08 108.272C171.088 108.816 169.584 109.312 167.568 109.76C165.584 110.208 163.552 110.432 161.472 110.432C156.256 110.432 152.32 108.896 149.664 105.824C147.008 102.752 145.68 98.848 145.68 94.112ZM186.054 110.432C182.598 110.432 179.942 109.408 178.086 107.36C176.23 105.312 175.302 102.448 175.302 98.768C175.302 95.088 176.278 92.144 178.23 89.936C180.214 87.696 182.934 86.576 186.39 86.576C189.878 86.576 192.55 87.616 194.406 89.696C196.262 91.744 197.19 94.608 197.19 98.288C197.19 101.968 196.198 104.912 194.214 107.12C192.262 109.328 189.542 110.432 186.054 110.432ZM179.958 98.144C179.958 100.992 180.534 103.328 181.686 105.152C182.838 106.976 184.406 107.888 186.39 107.888C188.374 107.888 189.782 107.408 190.614 106.448C191.19 105.808 191.654 104.8 192.006 103.424C192.358 102.016 192.534 100.496 192.534 98.864C192.534 96.016 191.958 93.68 190.806 91.856C189.654 90.032 188.086 89.12 186.102 89.12C184.118 89.12 182.71 89.6 181.878 90.56C181.302 91.2 180.838 92.224 180.486 93.632C180.134 95.008 179.958 96.512 179.958 98.144ZM215.983 106.832C214.127 109.232 211.903 110.432 209.311 110.432C206.719 110.432 204.591 109.408 202.927 107.36C201.263 105.28 200.431 102.448 200.431 98.864C200.431 95.28 201.375 92.336 203.263 90.032C205.151 87.728 207.791 86.576 211.183 86.576C213.519 86.576 215.247 86.992 216.367 87.824L216.703 87.68C216.575 87.168 216.511 86.464 216.511 85.568V77.504C216.511 76.832 216.175 76.336 215.503 76.016C214.863 75.664 213.695 75.376 211.999 75.152L212.287 73.616C215.711 73.168 218.383 72.944 220.303 72.944L220.831 73.424V105.296C220.831 106.128 221.023 106.72 221.407 107.072C221.823 107.392 222.847 107.712 224.479 108.032L224.191 109.568L218.431 110.192C218.111 110.192 217.759 109.872 217.375 109.232C216.991 108.592 216.799 108.016 216.799 107.504C216.799 106.992 216.815 106.608 216.847 106.352L216.463 106.208L215.983 106.832ZM205.087 97.712C205.087 100.88 205.583 103.216 206.575 104.72C207.599 106.224 208.879 106.976 210.415 106.976C211.951 106.976 213.551 106.432 215.215 105.344C216.079 104.768 216.511 104.032 216.511 103.136V91.664C215.199 90.096 213.151 89.312 210.367 89.312C208.991 89.312 207.903 89.76 207.103 90.656C205.759 92.16 205.087 94.512 205.087 97.712ZM237.839 110.432C234.607 110.432 232.095 109.328 230.303 107.12C228.543 104.912 227.663 102.128 227.663 98.768C227.663 95.376 228.687 92.496 230.735 90.128C232.783 87.76 235.487 86.576 238.847 86.576C244.287 86.576 247.135 89.92 247.391 96.608L246.143 97.52L232.223 98.288C232.223 104.208 234.751 107.168 239.807 107.168C242.015 107.168 244.175 106.624 246.287 105.536L247.295 107.12C246.239 107.984 244.863 108.752 243.167 109.424C241.471 110.096 239.695 110.432 237.839 110.432ZM232.367 96.08L242.303 95.216C242.623 95.184 242.783 94.88 242.783 94.304C242.783 92.896 242.399 91.68 241.631 90.656C240.895 89.632 239.631 89.12 237.839 89.12C236.047 89.12 234.735 89.728 233.903 90.944C233.103 92.128 232.591 93.84 232.367 96.08ZM262.399 94.112C262.399 90.464 263.151 87.216 264.655 84.368C266.415 81.008 269.055 78.672 272.575 77.36C274.527 76.656 276.559 76.304 278.671 76.304C280.783 76.304 282.815 76.464 284.767 76.784C286.719 77.104 287.999 77.392 288.607 77.648C288.799 78.832 288.895 80.08 288.895 81.392C288.895 82.672 288.863 84.112 288.799 85.712L286.063 86.096C285.359 82.384 284.735 80.336 284.191 79.952C283.903 79.728 283.151 79.488 281.935 79.232C280.751 78.976 279.567 78.848 278.383 78.848C274.863 78.848 272.207 80.144 270.415 82.736C268.623 85.328 267.727 88.736 267.727 92.96C267.727 97.952 268.863 101.664 271.135 104.096C273.407 106.528 276.223 107.744 279.583 107.744C280.799 107.744 281.935 107.6 282.991 107.312C284.079 107.024 284.783 106.752 285.103 106.496C285.455 106.24 285.983 104.208 286.687 100.4L289.327 100.496C289.327 102.928 289.151 105.52 288.799 108.272C287.807 108.816 286.303 109.312 284.287 109.76C282.303 110.208 280.271 110.432 278.191 110.432C272.975 110.432 269.039 108.896 266.383 105.824C263.727 102.752 262.399 98.848 262.399 94.112ZM292.404 110L292.116 108.128C293.684 107.808 294.628 107.488 294.948 107.168C295.3 106.816 295.476 106.224 295.476 105.392V77.504C295.476 76.832 295.22 76.352 294.708 76.064C294.196 75.744 293.236 75.44 291.828 75.152L292.116 73.616C295.54 73.168 297.924 72.944 299.268 72.944L299.796 73.424V106.544C299.796 106.928 299.876 107.184 300.036 107.312C300.228 107.408 300.468 107.488 300.756 107.552L303.108 108.128L302.916 110H292.404ZM309.432 104.048V91.376C309.432 90.704 309.176 90.224 308.664 89.936C308.152 89.616 307.192 89.312 305.784 89.024L306.072 87.488C309.496 87.04 311.88 86.816 313.224 86.816L313.752 87.296V101.984C313.752 105.312 315.016 106.976 317.544 106.976C319.176 106.976 320.872 106.352 322.632 105.104C323.048 104.816 323.32 104.544 323.448 104.288C323.576 104 323.64 103.536 323.64 102.896V91.376C323.64 90.704 323.384 90.224 322.872 89.936C322.36 89.616 321.4 89.312 319.992 89.024L320.28 87.488C323.704 87.04 326.088 86.816 327.432 86.816L327.96 87.296V105.248C327.96 106.08 328.152 106.672 328.536 107.024C328.952 107.344 329.976 107.664 331.608 107.984L331.32 109.52L325.128 110.192C324.904 110.224 324.664 109.808 324.408 108.944C324.184 108.048 324.072 107.28 324.072 106.64V106.352L323.688 106.208L323.112 106.88C321.096 109.248 318.632 110.432 315.72 110.432C313.768 110.432 312.232 109.92 311.112 108.896C309.992 107.84 309.432 106.224 309.432 104.048ZM336.703 108.368V77.504C336.703 76.832 336.447 76.352 335.935 76.064C335.423 75.744 334.463 75.44 333.055 75.152L333.343 73.616C336.767 73.168 339.151 72.944 340.495 72.944L341.023 73.424V86.912C341.023 88.672 340.911 89.92 340.687 90.656L341.071 90.8L341.551 90.176C343.407 87.776 345.631 86.576 348.223 86.576C350.815 86.576 352.943 87.616 354.607 89.696C356.271 91.744 357.103 94.576 357.103 98.192C357.103 101.808 356.143 104.752 354.223 107.024C352.335 109.296 349.599 110.432 346.015 110.432C344.319 110.432 342.591 110.208 340.831 109.76C339.071 109.312 337.695 108.848 336.703 108.368ZM341.023 105.968C342.399 107.12 344.127 107.696 346.207 107.696C348.319 107.696 349.743 107.264 350.479 106.4C351.055 105.76 351.519 104.752 351.871 103.376C352.255 101.968 352.447 100.416 352.447 98.72C352.447 95.872 351.935 93.712 350.911 92.24C349.887 90.768 348.623 90.032 347.119 90.032C345.615 90.032 344.015 90.592 342.319 91.712C341.775 92.064 341.423 92.384 341.263 92.672C341.103 92.96 341.023 93.36 341.023 93.872V105.968Z" fill="white"/>
<circle cx="62" cy="62" r="62" fill="#E68C27"/>
<path d="M20.9707 49.5L43.5521 26.8239C43.835 26.5513 44 26.1548 44 25.7583C44 25.3617 43.835 24.9652 43.5521 24.6926L40.2993 21.4213C40.0164 21.1487 39.6629 21 39.3329 21C39.0029 21 38.6257 21.1487 38.3664 21.4213L11.4479 48.4343C11.165 48.707 11 49.1035 11 49.5C11 49.8965 11.165 50.293 11.4479 50.5656L38.3664 77.5787C38.6493 77.8513 39.0029 78 39.3329 78C39.6864 78 40.04 77.8513 40.2993 77.5787L43.5521 74.3074C43.835 74.0348 44 73.6383 44 73.2417C44 72.8452 43.835 72.4487 43.5521 72.1761L20.9707 49.5Z" fill="white"/>
<path d="M103.029 69.5L80.4479 92.1761C80.165 92.4487 80 92.8452 80 93.2417C80 93.6383 80.165 94.0348 80.4479 94.3074L83.7007 97.5787C83.9836 97.8513 84.3371 98 84.6671 98C84.9971 98 85.3743 97.8513 85.6336 97.5787L112.552 70.5657C112.835 70.293 113 69.8965 113 69.5C113 69.1035 112.835 68.707 112.552 68.4344L85.6336 41.4213C85.3507 41.1487 84.9971 41 84.6671 41C84.3136 41 83.96 41.1487 83.7007 41.4213L80.4479 44.6926C80.165 44.9652 80 45.3617 80 45.7583C80 46.1548 80.165 46.5513 80.4479 46.8239L103.029 69.5Z" fill="white"/>
</svg>
